<svg width="25" height="24" viewBox="0 0 25 24" fill="none" xmlns="http://www.w3.org/2000/svg">
<path d="M6.25 11H14.5833C15.6884 11 16.7482 10.5786 17.5296 9.82843C18.311 9.07828 18.75 8.06087 18.75 7C18.75 5.93913 18.311 4.92172 17.5296 4.17157C16.7482 3.42143 15.6884 3 14.5833 3H9.375V21" stroke="black" stroke-width="2" stroke-linecap="round" stroke-linejoin="round"/>
<path d="M6.25 15H14.5833" stroke="black" stroke-width="2" stroke-linecap="round" stroke-linejoin="round"/>
<path d="M6.25 11H14.5833C15.6884 11 16.7482 10.5786 17.5296 9.82843C18.311 9.07828 18.75 8.06087 18.75 7C18.75 5.93913 18.311 4.92172 17.5296 4.17157C16.7482 3.42143 15.6884 3 14.5833 3H9.375V21" stroke="black" stroke-width="2" stroke-linecap="round" stroke-linejoin="round"/>
<path d="M6.25 15H14.5833" stroke="black" stroke-width="2" stroke-linecap="round" stroke-linejoin="round"/>
</svg>
